<?xml version="1.0" encoding="UTF-8" standalone="no"?>
<!-- Created with Inkscape (http://www.inkscape.org/) -->

<svg
   width="210mm"
   height="297mm"
   viewBox="0 0 210 297"
   version="1.1"
   id="svg1"
   inkscape:version="1.3.2 (091e20e, 2023-11-25, custom)"
   sodipodi:docname="title.svg"
   xmlns:inkscape="http://www.inkscape.org/namespaces/inkscape"
   xmlns:sodipodi="http://sodipodi.sourceforge.net/DTD/sodipodi-0.dtd"
   xmlns="http://www.w3.org/2000/svg"
   xmlns:svg="http://www.w3.org/2000/svg">
  <sodipodi:namedview
     id="namedview1"
     pagecolor="#ffffff"
     bordercolor="#000000"
     borderopacity="0.25"
     inkscape:showpageshadow="2"
     inkscape:pageopacity="0.0"
     inkscape:pagecheckerboard="0"
     inkscape:deskcolor="#d1d1d1"
     inkscape:document-units="mm"
     inkscape:zoom="0.65834035"
     inkscape:cx="396.45147"
     inkscape:cy="561.25984"
     inkscape:window-width="1920"
     inkscape:window-height="974"
     inkscape:window-x="-11"
     inkscape:window-y="-11"
     inkscape:window-maximized="1"
     inkscape:current-layer="layer1" />
  <defs
     id="defs1">
    <rect
       x="750.37175"
       y="469.36209"
       width="80.505471"
       height="238.47847"
       id="rect3" />
    <rect
       x="41.012221"
       y="413.16015"
       width="723.03027"
       height="164.04888"
       id="rect1" />
  </defs>
  <g
     inkscape:label="Layer 1"
     inkscape:groupmode="layer"
     id="layer1">
    <path
       style="font-size:160px;line-height:0.9;text-align:center;text-anchor:middle;white-space:pre"
       d="m 126.27734,520.16015 v 6.25 h 71.875 v -6.25 z m 30,-86.875 h -43.75 v -10 h 43.75 v -11.25 h 11.875 q 5,0.625 0.625,3.75 v 7.5 h 43.125 v 16.875 h 20.625 v 10 h -20.625 v 17.5 h -43.125 v 7.5 h 45.625 v 10 h -45.625 v 7.5 h 65.625 v 10 H 90.652344 v -10 h 65.624996 v -7.5 h -45.625 v -10 h 45.625 v -7.5 h -44.375 v -10 h 44.375 v -7.5 H 93.152344 v -10 h 63.124996 z m -42.5,76.875 h 96.875 v 45.625 h -12.5 v -3.125 h -71.875 v 3.125 h -12.5 z m 12.5,26.25 v 6.25 h 71.875 v -6.25 z m 73.125,-96.25 v -6.875 h -30.625 v 6.875 z m -30.625,10 v 7.5 h 30.625 v -7.5 z m 146.875,103.125 q -19.375,0 -35.625,-15.625 -13.125,12.5 -21.25,17.5 l -6.875,-14.375 22.5,-12.5 v -39.375 h -20.625 v -11.875 h 33.125 v 51.25 q 11.875,13.125 32.5,13.125 h 75.625 l -2.5,11.875 z m -38.75,-103.125 q -8.125,-11.875 -21.25,-24.375 l 10,-8.125 q 14.375,12.5 22.5,23.125 z m 72.5,-7.5 -6.875,11.875 h 34.375 v 78.125 h -10.625 v -4.375 h -49.375 v 6.875 h -10.625 v -80.625 h 24.375 l 4.375,-11.875 h -42.5 v -10 h 27.5 q -3.75,-5 -11.875,-13.125 l 10,-7.5 q 6.875,5.625 13.125,13.75 l -9.375,6.875 h 25 l 8.125,-21.25 13.75,2.5 q 2.5,2.5 -1.875,3.125 l -9.375,15.625 h 33.75 v 10 z m 16.875,63.75 h -49.375 v 11.875 h 49.375 z m 0,-20.625 h -49.375 v 10.625 h 49.375 z m 0,-21.25 h -49.375 v 11.25 h 49.375 z m 53.75,61.25 q -2.5,6.875 -4.375,0.625 l -3.75,-12.5 35,-1.25 v -11.25 l 4.375,0.625 10.625,-10.625 h -25.625 q -10.625,8.125 -21.875,13.125 l -6.25,-11.875 q 20.625,-8.75 38.125,-25 h -35 v -10 h 28.75 v -13.75 h -21.25 v -10 h 21.25 v -20.625 h 10 q 5,0.625 0.625,3.75 v 16.875 h 17.5 v 6.25 q 6.875,-10.625 12.5,-23.125 l 9.375,6.25 q 5,2.5 -0.625,3.75 -5.625,12.5 -20,30.625 h 16.25 v 10 h -23.75 q -6.25,6.875 -14.375,13.75 h 20.625 l 1.875,-3.125 9.375,9.375 q 3.125,5 -1.875,3.75 l -20,14.375 v 6.25 q 13.125,-1.25 32.5,-4.375 v 10.625 q -21.875,3.125 -32.5,4.375 v 22.5 q 0,10 -8.125,10 h -15 l -2.5,-11.875 h 12.5 q 2.5,0 2.5,-2.5 v -16.875 q -13.125,1.25 -26.875,1.875 z m 95,-104.375 q -4.375,17.5 -6.875,25.625 h 43.75 v 11.875 h -10.625 q -3.125,29.375 -16.25,55.625 10,15 29.375,25.625 l -8.125,11.25 q -17.5,-11.25 -28.125,-26.25 -13.75,18.75 -40.625,31.875 l -7.5,-12.5 q 27.5,-12.5 40,-30 -11.875,-21.875 -13.75,-38.125 l -9.375,15 -7.5,-10 q 16.25,-23.125 24.375,-67.5 l 11.875,3.75 q 5,1.25 -0.625,3.75 z m -60,36.25 q 6.875,-8.125 10.625,-13.75 h -15 v 13.75 z m 61.875,46.25 q 8.75,-16.875 13.125,-45 h -26.875 q 1.875,24.375 13.75,45 z m 178.75,-5 q -5,-4.375 -10,-7.5 l -36.875,1.875 v 17.5 h 49.375 v 11.875 h -49.375 v 18.125 h 65 v 11.875 h -143.125 v -11.875 h 65.625 v -18.125 h -48.75 v -11.875 h 48.75 v -16.875 l -41.25,1.25 q -2.5,5 -4.375,0.625 l -3.125,-13.125 h 23.125 l 13.75,-20 h -29.375 v -10 h 95 v 10 h -23.125 q 20.625,13.75 38.125,26.875 z m -21.875,-17.5 q -7.5,-5.625 -16.875,-11.25 l 8.125,-7.5 h -25.625 l -15,20 z m -25,-68.75 q 6.25,1.25 0.625,5 v 10.625 h 59.375 v 33.125 h -12.5 v -21.25 h -107.5 v 21.25 h -12.5 v -33.125 h 58.75 v -15.625 z"
       id="text1"
       transform="matrix(0.29038197,0,0,0.29770081,-10.376596,-3.1756131)"
       aria-label="書道教室&#10;" />
    <text
       xml:space="preserve"
       transform="scale(0.26458333)"
       id="text3"
       style="fill:#000000;line-height:0.9;font-size:160px;text-align:center;white-space:pre;shape-inside:url(#rect3)" />
  </g>
</svg>
